<?xml version="1.0" standalone="no"?>
<!-- Creator: fig2dev Version 3.2.6a -->
<!-- CreationDate: 2017-09-20 19:18:50 -->
<!-- Magnification: 1.05 -->
<svg	xmlns="http://www.w3.org/2000/svg"
	xmlns:xlink="http://www.w3.org/1999/xlink"
	width="283pt" height="229pt"
	viewBox="7590 750 4478 3630">
<g fill="none">
<!-- Line -->
<polyline points=" 11520,4005 11565,4005 11565,3960 11520,3960 11520,4005"
	stroke="#000000" stroke-width="8px"/>
<!-- Line -->
<polyline points=" 10620,3060 10800,3060"
	stroke="#000000" stroke-width="8px"/>
<!-- Line -->
<polyline points=" 10620,3195 10800,3195"
	stroke="#000000" stroke-width="8px"/>
<!-- Line -->
<polyline points=" 10620,3330 10800,3330"
	stroke="#000000" stroke-width="8px"/>
<!-- Line -->
<polyline points=" 10620,3465 10800,3465"
	stroke="#000000" stroke-width="8px"/>
<!-- Line -->
<polyline points=" 10620,3600 10800,3600"
	stroke="#000000" stroke-width="8px"/>
<!-- Line -->
<polyline points=" 10620,3735 10800,3735"
	stroke="#000000" stroke-width="8px"/>
<!-- Line -->
<polyline points=" 10620,3870 10800,3870"
	stroke="#000000" stroke-width="8px"/>
<!-- Line -->
<polyline points=" 10620,2925 10800,2925"
	stroke="#000000" stroke-width="8px"/>
<!-- Line -->
<rect x="10800" y="2835" width="810" height="1260"
	stroke="#000000" stroke-width="8px"/>
<!-- Line -->
<polyline points=" 10890,4005 11430,4005 11385,3960 10935,3960 10890,4005"
	stroke="#000000" stroke-width="8px"/>
<!-- Line -->
<polyline points=" 10890,4005 10935,3420 10980,3420 10935,3960 10890,4005"
	stroke="#000000" stroke-width="8px"/>
<!-- Line -->
<polyline points=" 10935,3420 10980,2880 11025,2925 10980,3375 10935,3420"
	stroke="#000000" stroke-width="8px"/>
<!-- Line -->
<polyline points=" 10980,2880 11520,2880 11475,2925 11025,2925 10980,2880"
	stroke="#000000" stroke-width="8px"/>
<!-- Line -->
<polyline points=" 11520,2880 11475,3420 11430,3375 11475,2925 11520,2880"
	stroke="#000000" stroke-width="8px"/>
<!-- Line -->
<polyline points=" 11475,3420 11430,4005 11385,3960 11430,3420 11475,3420"
	stroke="#000000" stroke-width="8px"/>
<!-- Line -->
<polyline points=" 10935,3420 11475,3420 11430,3375 10980,3375 10935,3420"
	stroke="#000000" stroke-width="8px"/>
<!-- Line -->
<polyline points=" 11205,2835 11205,2655"
	stroke="#000000" stroke-width="8px"/>
<!-- Line -->
<polyline points=" 8640,1395 8595,1395"
	stroke="#000000" stroke-width="8px"/>
<!-- Line -->
<polyline points=" 11790,4275 8595,4275"
	stroke="#000000" stroke-width="8px"/>
<!-- Line -->
<rect x="10440" y="2880" width="180" height="90"
	stroke="#000000" stroke-width="8px"/>
<!-- Line -->
<rect x="10440" y="3015" width="180" height="90"
	stroke="#000000" stroke-width="8px"/>
<!-- Line -->
<rect x="10440" y="3150" width="180" height="90"
	stroke="#000000" stroke-width="8px"/>
<!-- Line -->
<rect x="10440" y="3285" width="180" height="90"
	stroke="#000000" stroke-width="8px"/>
<!-- Line -->
<rect x="10440" y="3420" width="180" height="90"
	stroke="#000000" stroke-width="8px"/>
<!-- Line -->
<rect x="10440" y="3555" width="180" height="90"
	stroke="#000000" stroke-width="8px"/>
<!-- Line -->
<rect x="10440" y="3690" width="180" height="90"
	stroke="#000000" stroke-width="8px"/>
<!-- Line -->
<polyline points=" 10215,2925 10440,2925"
	stroke="#000000" stroke-width="8px"/>
<!-- Line -->
<polyline points=" 10440,3060 10215,3060"
	stroke="#000000" stroke-width="8px"/>
<!-- Line -->
<polyline points=" 10215,3195 10440,3195"
	stroke="#000000" stroke-width="8px"/>
<!-- Line -->
<polyline points=" 10440,3330 10215,3330"
	stroke="#000000" stroke-width="8px"/>
<!-- Line -->
<polyline points=" 10215,3465 10440,3465"
	stroke="#000000" stroke-width="8px"/>
<!-- Line -->
<polyline points=" 10440,3600 10215,3600"
	stroke="#000000" stroke-width="8px"/>
<!-- Line -->
<polyline points=" 10215,3735 10440,3735"
	stroke="#000000" stroke-width="8px"/>
<!-- Line -->
<polyline points=" 10440,3870 10215,3870"
	stroke="#000000" stroke-width="8px"/>
<!-- Line -->
<rect x="10440" y="3825" width="180" height="90"
	stroke="#000000" stroke-width="8px"/>
<!-- Line -->
<polyline points=" 8595,1935 11790,1935"
	stroke="#000000" stroke-width="8px"/>
<!-- Line -->
<polyline points=" 8640,1395 11790,1395"
	stroke="#000000" stroke-width="8px"/>
<!-- Line -->
<polyline points=" 8955,3780 8955,3915 8955,4050 8955,4275"
	stroke="#000000" stroke-width="8px"/>
<!-- Line -->
<polyline points=" 8550,1125 8550,3645 8955,3645"
	stroke="#000000" stroke-width="8px"/>
<!-- Line -->
<polyline points=" 8640,1935 8640,2835 8955,2835"
	stroke="#000000" stroke-width="8px"/>
<!-- Line -->
<polyline points=" 8730,1665 8730,2700"
	stroke="#000000" stroke-width="8px"/>
<!-- Line -->
<polyline points=" 8730,2700 8955,2700"
	stroke="#000000" stroke-width="8px"/>
<!-- Line -->
<polyline points=" 8595,1125 11790,1125"
	stroke="#000000" stroke-width="8px"/>
<!-- Line -->
<polyline points=" 11790,855 8595,855"
	stroke="#000000" stroke-width="8px"/>
<!-- Line -->
<polyline points=" 8595,1665 8730,1665"
	stroke="#000000" stroke-width="8px"/>
<!-- Line -->
<polyline points=" 10215,2700 10350,2700 10350,1665 11790,1665"
	stroke="#000000" stroke-width="8px"/>
<!-- Line -->
<polyline points=" 8955,2565 8550,2565"
	stroke="#000000" stroke-width="8px"/>
<!-- Line -->
<polyline points=" 8955,2430 8820,2430 8820,1395"
	stroke="#000000" stroke-width="8px"/>
<!-- Line -->
<polyline points=" 8955,2295 8955,3780"
	stroke="#000000" stroke-width="8px"/>
<!-- Line -->
<polyline points=" 11205,2655 11205,855"
	stroke="#000000" stroke-width="8px"/>
<!-- Line -->
<polyline points=" 7605,1215"
	stroke="#000000" stroke-width="8px"/>
<!-- Text -->
<text xml:space="preserve" x="7605" y="1440" fill="#000000" font-family="Times" font-style="normal" font-weight="normal" font-size="144" text-anchor="start">Latch</text>
<!-- Text -->
<text xml:space="preserve" x="7605" y="1710" fill="#000000" font-family="Times" font-style="normal" font-weight="normal" font-size="144" text-anchor="start">Data</text>
<!-- Text -->
<text xml:space="preserve" x="7605" y="1980" fill="#000000" font-family="Times" font-style="normal" font-weight="normal" font-size="144" text-anchor="start">Clock</text>
<!-- Text -->
<text xml:space="preserve" x="7605" y="1170" fill="#000000" font-family="Times" font-style="normal" font-weight="normal" font-size="144" text-anchor="start">+5V</text>
<!-- Text -->
<text xml:space="preserve" x="7605" y="4365" fill="#000000" font-family="Times" font-style="normal" font-weight="normal" font-size="144" text-anchor="start">GND</text>
<!-- Text -->
<text xml:space="preserve" x="7605" y="900" fill="#000000" font-family="Times" font-style="normal" font-weight="normal" font-size="144" text-anchor="start">+12V</text>
<!-- Text -->
<text xml:space="preserve" x="9360" y="2070" fill="#000000" font-family="Helvetica" font-style="normal" font-weight="normal" font-size="96" text-anchor="start">TPIC6B595</text>
<!-- Text -->
<text xml:space="preserve" x="9720" y="3060" fill="#000000" font-family="Helvetica" font-style="normal" font-weight="normal" font-size="72" text-anchor="start">D1</text>
<!-- Text -->
<text xml:space="preserve" x="9720" y="3195" fill="#000000" font-family="Helvetica" font-style="normal" font-weight="normal" font-size="72" text-anchor="start">D2</text>
<!-- Text -->
<text xml:space="preserve" x="9720" y="3330" fill="#000000" font-family="Helvetica" font-style="normal" font-weight="normal" font-size="72" text-anchor="start">D3</text>
<!-- Text -->
<text xml:space="preserve" x="9720" y="3465" fill="#000000" font-family="Helvetica" font-style="normal" font-weight="normal" font-size="72" text-anchor="start">D4</text>
<!-- Text -->
<text xml:space="preserve" x="9720" y="3600" fill="#000000" font-family="Helvetica" font-style="normal" font-weight="normal" font-size="72" text-anchor="start">D5</text>
<!-- Text -->
<text xml:space="preserve" x="9720" y="3870" fill="#000000" font-family="Helvetica" font-style="normal" font-weight="normal" font-size="72" text-anchor="start">D7</text>
<!-- Text -->
<text xml:space="preserve" x="9720" y="2925" fill="#000000" font-family="Helvetica" font-style="normal" font-weight="normal" font-size="72" text-anchor="start">D0</text>
<!-- Text -->
<text xml:space="preserve" x="9720" y="3735" fill="#000000" font-family="Helvetica" font-style="normal" font-weight="normal" font-size="72" text-anchor="start">D6</text>
<!-- Text -->
<text xml:space="preserve" x="9630" y="2700" fill="#000000" font-family="Helvetica" font-style="normal" font-weight="normal" font-size="72" text-anchor="start">S.out</text>
<!-- Text -->
<text xml:space="preserve" x="9315" y="2700" fill="#000000" font-family="Helvetica" font-style="normal" font-weight="normal" font-size="72" text-anchor="start">S.in</text>
<!-- Text -->
<text xml:space="preserve" x="9315" y="2565" fill="#000000" font-family="Helvetica" font-style="normal" font-weight="normal" font-size="72" text-anchor="start">SRclr</text>
<!-- Text -->
<text xml:space="preserve" x="9315" y="2295" fill="#000000" font-family="Helvetica" font-style="normal" font-weight="normal" font-size="72" text-anchor="start">/G</text>
<!-- Text -->
<text xml:space="preserve" x="9315" y="2430" fill="#000000" font-family="Helvetica" font-style="normal" font-weight="normal" font-size="72" text-anchor="start">RCK</text>
<!-- Text -->
<text xml:space="preserve" x="9315" y="2835" fill="#000000" font-family="Helvetica" font-style="normal" font-weight="normal" font-size="72" text-anchor="start">SRCK</text>
<!-- Text -->
<text xml:space="preserve" x="9315" y="3780" fill="#000000" font-family="Helvetica" font-style="normal" font-weight="normal" font-size="72" text-anchor="start">GND</text>
<!-- Text -->
<text xml:space="preserve" x="9315" y="3915" fill="#000000" font-family="Helvetica" font-style="normal" font-weight="normal" font-size="72" text-anchor="start">GND</text>
<!-- Text -->
<text xml:space="preserve" x="9315" y="4050" fill="#000000" font-family="Helvetica" font-style="normal" font-weight="normal" font-size="72" text-anchor="start">GND</text>
<!-- Line -->
<polyline points=" 8955,4050 9270,4050"
	stroke="#000000" stroke-width="8px"/>
<!-- Line -->
<polyline points=" 8955,3915 9270,3915"
	stroke="#000000" stroke-width="8px"/>
<!-- Line -->
<polyline points=" 8955,3780 9270,3780"
	stroke="#000000" stroke-width="8px"/>
<!-- Line -->
<polyline points=" 8955,3645 9270,3645"
	stroke="#000000" stroke-width="8px"/>
<!-- Text -->
<text xml:space="preserve" x="9315" y="3645" fill="#000000" font-family="Helvetica" font-style="normal" font-weight="normal" font-size="72" text-anchor="start">VCC</text>
<!-- Text -->
<text xml:space="preserve" x="9045" y="3600" fill="#000000" font-family="Helvetica" font-style="normal" font-weight="normal" font-size="72" text-anchor="start">2</text>
<!-- Text -->
<text xml:space="preserve" x="9045" y="3870" fill="#000000" font-family="Helvetica" font-style="normal" font-weight="normal" font-size="72" text-anchor="start">11</text>
<!-- Text -->
<text xml:space="preserve" x="9045" y="4005" fill="#000000" font-family="Helvetica" font-style="normal" font-weight="normal" font-size="72" text-anchor="start">19</text>
<!-- Text -->
<text xml:space="preserve" x="9045" y="3735" fill="#000000" font-family="Helvetica" font-style="normal" font-weight="normal" font-size="72" text-anchor="start">10</text>
<!-- Circle -->
<circle cx="8370" cy="1665" r="45"
	stroke="#000000" stroke-width="8px"/>
<!-- Line -->
<polyline points=" 8415,1665 8595,1665"
	stroke="#000000" stroke-width="8px"/>
<!-- Circle -->
<circle cx="8370" cy="1395" r="45"
	stroke="#000000" stroke-width="8px"/>
<!-- Line -->
<polyline points=" 8415,1395 8595,1395"
	stroke="#000000" stroke-width="8px"/>
<!-- Line -->
<polyline points=" 8955,2295 9270,2295"
	stroke="#000000" stroke-width="8px"/>
<!-- Line -->
<polyline points=" 8955,2430 9270,2430"
	stroke="#000000" stroke-width="8px"/>
<!-- Line -->
<polyline points=" 8955,2565 9270,2565"
	stroke="#000000" stroke-width="8px"/>
<!-- Line -->
<polyline points=" 8955,2700 9270,2700"
	stroke="#000000" stroke-width="8px"/>
<!-- Line -->
<polyline points=" 10215,2925 9900,2925"
	stroke="#000000" stroke-width="8px"/>
<!-- Line -->
<polyline points=" 10215,3060 9900,3060"
	stroke="#000000" stroke-width="8px"/>
<!-- Line -->
<polyline points=" 10215,3195 9900,3195"
	stroke="#000000" stroke-width="8px"/>
<!-- Line -->
<polyline points=" 10215,3330 9900,3330"
	stroke="#000000" stroke-width="8px"/>
<!-- Line -->
<polyline points=" 10215,3465 9900,3465"
	stroke="#000000" stroke-width="8px"/>
<!-- Line -->
<polyline points=" 10215,3600 9900,3600"
	stroke="#000000" stroke-width="8px"/>
<!-- Line -->
<polyline points=" 10215,3735 9900,3735"
	stroke="#000000" stroke-width="8px"/>
<!-- Line -->
<polyline points=" 10215,3870 9900,3870"
	stroke="#000000" stroke-width="8px"/>
<!-- Line -->
<polyline points=" 9900,4140 9900,2160 9270,2160 9270,4140 9900,4140"
	stroke="#000000" stroke-width="8px"/>
<!-- Line -->
<polyline points=" 10215,2700 9900,2700"
	stroke="#000000" stroke-width="8px"/>
<!-- Line -->
<polyline points=" 8955,2835 9270,2835"
	stroke="#000000" stroke-width="8px"/>
<!-- Circle -->
<circle cx="8370" cy="1125" r="45"
	stroke="#000000" stroke-width="8px"/>
<!-- Line -->
<polyline points=" 8415,1125 8595,1125"
	stroke="#000000" stroke-width="8px"/>
<!-- Circle -->
<circle cx="8370" cy="4275" r="45"
	stroke="#000000" stroke-width="8px"/>
<!-- Line -->
<polyline points=" 8415,4275 8595,4275"
	stroke="#000000" stroke-width="8px"/>
<!-- Circle -->
<circle cx="8370" cy="1935" r="45"
	stroke="#000000" stroke-width="8px"/>
<!-- Line -->
<polyline points=" 8415,1935 8595,1935"
	stroke="#000000" stroke-width="8px"/>
<!-- Circle -->
<circle cx="8370" cy="855" r="45"
	stroke="#000000" stroke-width="8px"/>
<!-- Line -->
<polyline points=" 8415,855 8595,855"
	stroke="#000000" stroke-width="8px"/>
<!-- Circle -->
<circle cx="12015" cy="855" r="45"
	stroke="#000000" stroke-width="8px"/>
<!-- Line -->
<polyline points=" 11970,855 11790,855"
	stroke="#000000" stroke-width="8px"/>
<!-- Circle -->
<circle cx="12015" cy="1125" r="45"
	stroke="#000000" stroke-width="8px"/>
<!-- Line -->
<polyline points=" 11970,1125 11790,1125"
	stroke="#000000" stroke-width="8px"/>
<!-- Circle -->
<circle cx="12015" cy="1395" r="45"
	stroke="#000000" stroke-width="8px"/>
<!-- Line -->
<polyline points=" 11970,1395 11790,1395"
	stroke="#000000" stroke-width="8px"/>
<!-- Circle -->
<circle cx="12015" cy="1665" r="45"
	stroke="#000000" stroke-width="8px"/>
<!-- Line -->
<polyline points=" 11970,1665 11790,1665"
	stroke="#000000" stroke-width="8px"/>
<!-- Circle -->
<circle cx="12015" cy="1935" r="45"
	stroke="#000000" stroke-width="8px"/>
<!-- Line -->
<polyline points=" 11970,1935 11790,1935"
	stroke="#000000" stroke-width="8px"/>
<!-- Circle -->
<circle cx="12015" cy="4275" r="45"
	stroke="#000000" stroke-width="8px"/>
<!-- Line -->
<polyline points=" 11970,4275 11790,4275"
	stroke="#000000" stroke-width="8px"/>
<!-- Text -->
<text xml:space="preserve" x="9002" y="2679" fill="#000000" font-family="Helvetica" font-style="normal" font-weight="normal" font-size="72" text-anchor="start">3</text>
<!-- Text -->
<text xml:space="preserve" x="9002" y="2274" fill="#000000" font-family="Helvetica" font-style="normal" font-weight="normal" font-size="72" text-anchor="start">9</text>
<!-- Text -->
<text xml:space="preserve" x="9002" y="2409" fill="#000000" font-family="Helvetica" font-style="normal" font-weight="normal" font-size="72" text-anchor="start">12</text>
<!-- Text -->
<text xml:space="preserve" x="9002" y="2537" fill="#000000" font-family="Helvetica" font-style="normal" font-weight="normal" font-size="72" text-anchor="start">8</text>
<!-- Text -->
<text xml:space="preserve" x="10026" y="2897" fill="#000000" font-family="Helvetica" font-style="normal" font-weight="normal" font-size="72" text-anchor="start">4</text>
<!-- Text -->
<text xml:space="preserve" x="10026" y="3028" fill="#000000" font-family="Helvetica" font-style="normal" font-weight="normal" font-size="72" text-anchor="start">5</text>
<!-- Text -->
<text xml:space="preserve" x="10026" y="3174" fill="#000000" font-family="Helvetica" font-style="normal" font-weight="normal" font-size="72" text-anchor="start">6</text>
<!-- Text -->
<text xml:space="preserve" x="10026" y="3305" fill="#000000" font-family="Helvetica" font-style="normal" font-weight="normal" font-size="72" text-anchor="start">7</text>
<!-- Text -->
<text xml:space="preserve" x="10026" y="3440" fill="#000000" font-family="Helvetica" font-style="normal" font-weight="normal" font-size="72" text-anchor="start">14</text>
<!-- Text -->
<text xml:space="preserve" x="10026" y="3571" fill="#000000" font-family="Helvetica" font-style="normal" font-weight="normal" font-size="72" text-anchor="start">15</text>
<!-- Text -->
<text xml:space="preserve" x="10026" y="3711" fill="#000000" font-family="Helvetica" font-style="normal" font-weight="normal" font-size="72" text-anchor="start">16</text>
<!-- Text -->
<text xml:space="preserve" x="10026" y="3849" fill="#000000" font-family="Helvetica" font-style="normal" font-weight="normal" font-size="72" text-anchor="start">17</text>
<!-- Text -->
<text xml:space="preserve" x="9990" y="2655" fill="#000000" font-family="Helvetica" font-style="normal" font-weight="normal" font-size="72" text-anchor="start">18</text>
<!-- Text -->
<text xml:space="preserve" x="9002" y="2813" fill="#000000" font-family="Helvetica" font-style="normal" font-weight="normal" font-size="72" text-anchor="start">13</text>
</g>
</svg>
